<svg xmlns="http://www.w3.org/2000/svg" width="1000" height="160" viewBox="0 0 1000 160">
<rect width="100%" height="100%" rx="18" fill="#0d1117"/>
<style>text{font-family:ui-monospace,SFMono-Regular,Menlo,Monaco,Consolas,Liberation Mono,monospace}.title{fill:#f0f6fc;font-weight:700}.muted{fill:#8b949e}.blue{fill:#58a6ff}</style><rect x="1" y="1" width="998" height="158" rx="18" fill="none" stroke="#30363d"/><rect x="28" y="35" width="78" height="34" rx="9" fill="#111821" stroke="#30363d"/><text x="41" y="57" fill="#f0f6fc" font-size="13">Rust</text><rect x="116" y="35" width="116" height="34" rx="9" fill="#111821" stroke="#30363d"/><text x="129" y="57" fill="#f0f6fc" font-size="13">TypeScript</text><rect x="242" y="35" width="116" height="34" rx="9" fill="#111821" stroke="#30363d"/><text x="255" y="57" fill="#f0f6fc" font-size="13">JavaScript</text><rect x="368" y="35" width="80" height="34" rx="9" fill="#111821" stroke="#30363d"/><text x="381" y="57" fill="#f0f6fc" font-size="13">Python</text><rect x="458" y="35" width="78" height="34" rx="9" fill="#111821" stroke="#30363d"/><text x="471" y="57" fill="#f0f6fc" font-size="13">Java</text><rect x="546" y="35" width="89" height="34" rx="9" fill="#111821" stroke="#30363d"/><text x="559" y="57" fill="#f0f6fc" font-size="13">Node.js</text><rect x="645" y="35" width="78" height="34" rx="9" fill="#111821" stroke="#30363d"/><text x="658" y="57" fill="#f0f6fc" font-size="13">React</text><rect x="733" y="35" width="80" height="34" rx="9" fill="#111821" stroke="#30363d"/><text x="746" y="57" fill="#f0f6fc" font-size="13">Docker</text><rect x="823" y="35" width="78" height="34" rx="9" fill="#111821" stroke="#30363d"/><text x="836" y="57" fill="#f0f6fc" font-size="13">Linux</text><rect x="28" y="87" width="78" height="34" rx="9" fill="#111821" stroke="#30363d"/><text x="41" y="109" fill="#f0f6fc" font-size="13">Bash</text><rect x="116" y="87" width="116" height="34" rx="9" fill="#111821" stroke="#30363d"/><text x="129" y="109" fill="#f0f6fc" font-size="13">PowerShell</text><rect x="242" y="87" width="78" height="34" rx="9" fill="#111821" stroke="#30363d"/><text x="255" y="109" fill="#f0f6fc" font-size="13">Git</text><rect x="330" y="87" width="116" height="34" rx="9" fill="#111821" stroke="#30363d"/><text x="343" y="109" fill="#f0f6fc" font-size="13">PostgreSQL</text><rect x="456" y="87" width="78" height="34" rx="9" fill="#111821" stroke="#30363d"/><text x="469" y="109" fill="#f0f6fc" font-size="13">MySQL</text><rect x="544" y="87" width="89" height="34" rx="9" fill="#111821" stroke="#30363d"/><text x="557" y="109" fill="#f0f6fc" font-size="13">MongoDB</text><rect x="643" y="87" width="89" height="34" rx="9" fill="#111821" stroke="#30363d"/><text x="656" y="109" fill="#f0f6fc" font-size="13">Arduino</text></svg>